# Blender 4.2.3 LTS
# www.blender.org
mtllib scene.mtl
o Cylinder
v 0.000000 -0.500000 -1.000000
v 0.000000 0.500000 -1.000000
v 0.195090 -0.500000 -0.980785
v 0.195090 0.500000 -0.980785
v 0.382683 -0.500000 -0.923880
v 0.382683 0.500000 -0.923880
v 0.555570 -0.500000 -0.831470
v 0.555570 0.500000 -0.831470
v 0.707107 -0.500000 -0.707107
v 0.707107 0.500000 -0.707107
v 0.831470 -0.500000 -0.555570
v 0.831470 0.500000 -0.555570
v 0.923880 -0.500000 -0.382683
v 0.923880 0.500000 -0.382683
v 0.980785 -0.500000 -0.195090
v 0.980785 0.500000 -0.195090
v 1.000000 -0.500000 0.000000
v 1.000000 0.500000 0.000000
v 0.980785 -0.500000 0.195090
v 0.980785 0.500000 0.195090
v 0.923880 -0.500000 0.382683
v 0.923880 0.500000 0.382683
v 0.831470 -0.500000 0.555570
v 0.831470 0.500000 0.555570
v 0.707107 -0.500000 0.707107
v 0.707107 0.500000 0.707107
v 0.555570 -0.500000 0.831470
v 0.555570 0.500000 0.831470
v 0.382683 -0.500000 0.923880
v 0.382683 0.500000 0.923880
v 0.195090 -0.500000 0.980785
v 0.195090 0.500000 0.980785
v 0.000000 -0.500000 1.000000
v 0.000000 0.500000 1.000000
v -0.195090 -0.500000 0.980785
v -0.195090 0.500000 0.980785
v -0.382683 -0.500000 0.923880
v -0.382683 0.500000 0.923880
v -0.555570 -0.500000 0.831470
v -0.555570 0.500000 0.831470
v -0.707107 -0.500000 0.707107
v -0.707107 0.500000 0.707107
v -0.831470 -0.500000 0.555570
v -0.831470 0.500000 0.555570
v -0.923880 -0.500000 0.382683
v -0.923880 0.500000 0.382683
v -0.980785 -0.500000 0.195090
v -0.980785 0.500000 0.195090
v -1.000000 -0.500000 0.000000
v -1.000000 0.500000 0.000000
v -0.980785 -0.500000 -0.195090
v -0.980785 0.500000 -0.195090
v -0.923880 -0.500000 -0.382683
v -0.923880 0.500000 -0.382683
v -0.831470 -0.500000 -0.555570
v -0.831470 0.500000 -0.555570
v -0.707107 -0.500000 -0.707107
v -0.707107 0.500000 -0.707107
v -0.555570 -0.500000 -0.831470
v -0.555570 0.500000 -0.831470
v -0.382683 -0.500000 -0.923880
v -0.382683 0.500000 -0.923880
v -0.195090 -0.500000 -0.980785
v -0.195090 0.500000 -0.980785
v 0.000000 -0.491535 -1.000000
v 0.000000 0.491535 -1.000000
v 0.195090 0.491535 -0.980785
v 0.195090 -0.491535 -0.980785
v 0.382683 0.491535 -0.923880
v 0.382683 -0.491535 -0.923880
v 0.555570 0.491535 -0.831470
v 0.555570 -0.491535 -0.831470
v 0.707107 0.491535 -0.707107
v 0.707107 -0.491535 -0.707107
v 0.831470 0.491535 -0.555570
v 0.831470 -0.491535 -0.555570
v 0.923880 0.491535 -0.382683
v 0.923880 -0.491535 -0.382683
v 0.980785 0.491535 -0.195090
v 0.980785 -0.491535 -0.195090
v 1.000000 0.491535 0.000000
v 1.000000 -0.491535 0.000000
v 0.980785 0.491535 0.195090
v 0.980785 -0.491535 0.195090
v 0.923880 0.491535 0.382683
v 0.923880 -0.491535 0.382683
v 0.831470 0.491535 0.555570
v 0.831470 -0.491535 0.555570
v 0.707107 0.491535 0.707107
v 0.707107 -0.491535 0.707107
v 0.555570 0.491535 0.831470
v 0.555570 -0.491535 0.831470
v 0.382683 0.491535 0.923880
v 0.382683 -0.491535 0.923880
v 0.195090 0.491535 0.980785
v 0.195090 -0.491535 0.980785
v 0.000000 0.491535 1.000000
v 0.000000 -0.491535 1.000000
v -0.195090 0.491535 0.980785
v -0.195090 -0.491535 0.980785
v -0.382683 0.491535 0.923880
v -0.382683 -0.491535 0.923880
v -0.555570 0.491535 0.831470
v -0.555570 -0.491535 0.831470
v -0.707107 0.491535 0.707107
v -0.707107 -0.491535 0.707107
v -0.831470 0.491535 0.555570
v -0.831470 -0.491535 0.555570
v -0.923880 0.491535 0.382683
v -0.923880 -0.491535 0.382683
v -0.980785 0.491535 0.195090
v -0.980785 -0.491535 0.195090
v -1.000000 0.491535 0.000000
v -1.000000 -0.491535 0.000000
v -0.980785 0.491535 -0.195090
v -0.980785 -0.491535 -0.195090
v -0.923880 0.491535 -0.382683
v -0.923880 -0.491535 -0.382683
v -0.831470 0.491535 -0.555570
v -0.831470 -0.491535 -0.555570
v -0.707107 0.491535 -0.707107
v -0.707107 -0.491535 -0.707107
v -0.555570 0.491535 -0.831470
v -0.555570 -0.491535 -0.831470
v -0.382683 0.491535 -0.923880
v -0.382683 -0.491535 -0.923880
v -0.195090 0.491535 -0.980785
v -0.195090 -0.491535 -0.980785
vn -0.0000 -0.8833 -0.4688
vn -0.0000 0.8833 -0.4688
vn 0.0915 -0.8833 -0.4598
vn 0.0915 0.8833 -0.4598
vn 0.1794 -0.8833 -0.4331
vn 0.1794 0.8833 -0.4331
vn 0.2605 -0.8833 -0.3898
vn 0.2605 0.8833 -0.3898
vn 0.3315 -0.8833 -0.3315
vn 0.3315 0.8833 -0.3315
vn 0.3898 -0.8833 -0.2605
vn 0.3898 0.8833 -0.2605
vn 0.4331 -0.8833 -0.1794
vn 0.4331 0.8833 -0.1794
vn 0.4598 -0.8833 -0.0915
vn 0.4598 0.8833 -0.0915
vn 0.4688 -0.8833 -0.0000
vn 0.4688 0.8833 -0.0000
vn 0.4598 -0.8833 0.0915
vn 0.4598 0.8833 0.0915
vn 0.4331 -0.8833 0.1794
vn 0.4331 0.8833 0.1794
vn 0.3898 -0.8833 0.2605
vn 0.3898 0.8833 0.2605
vn 0.3315 -0.8833 0.3315
vn 0.3315 0.8833 0.3315
vn 0.2605 -0.8833 0.3898
vn 0.2605 0.8833 0.3898
vn 0.1794 -0.8833 0.4331
vn 0.1794 0.8833 0.4331
vn 0.0915 -0.8833 0.4598
vn 0.0915 0.8833 0.4598
vn -0.0000 -0.8833 0.4688
vn -0.0000 0.8833 0.4688
vn -0.0915 -0.8833 0.4598
vn -0.0915 0.8833 0.4598
vn -0.1794 -0.8833 0.4331
vn -0.1794 0.8833 0.4331
vn -0.2605 -0.8833 0.3898
vn -0.2605 0.8833 0.3898
vn -0.3315 -0.8833 0.3315
vn -0.3315 0.8833 0.3315
vn -0.3898 -0.8833 0.2605
vn -0.3898 0.8833 0.2605
vn -0.4331 -0.8833 0.1794
vn -0.4331 0.8833 0.1794
vn -0.4598 -0.8833 0.0915
vn -0.4598 0.8833 0.0915
vn -0.4688 -0.8833 -0.0000
vn -0.4688 0.8833 -0.0000
vn -0.4598 -0.8833 -0.0915
vn -0.4598 0.8833 -0.0915
vn -0.4331 -0.8833 -0.1794
vn -0.4331 0.8833 -0.1794
vn -0.3898 -0.8833 -0.2605
vn -0.3898 0.8833 -0.2605
vn -0.3315 -0.8833 -0.3315
vn -0.3315 0.8833 -0.3315
vn -0.2605 -0.8833 -0.3898
vn -0.2605 0.8833 -0.3898
vn -0.1794 -0.8833 -0.4331
vn -0.1794 0.8833 -0.4331
vn -0.0915 -0.8833 -0.4598
vn -0.0915 0.8833 -0.4598
vn -0.0000 -0.0000 -1.0000
vn 0.1951 -0.0000 -0.9808
vn 0.3827 -0.0000 -0.9239
vn 0.5556 -0.0000 -0.8315
vn 0.7071 -0.0000 -0.7071
vn 0.8315 -0.0000 -0.5556
vn 0.9239 -0.0000 -0.3827
vn 0.9808 -0.0000 -0.1951
vn 1.0000 -0.0000 -0.0000
vn 0.9808 -0.0000 0.1951
vn 0.9239 -0.0000 0.3827
vn 0.8315 -0.0000 0.5556
vn 0.7071 -0.0000 0.7071
vn 0.5556 -0.0000 0.8315
vn 0.3827 -0.0000 0.9239
vn 0.1951 -0.0000 0.9808
vn -0.0000 -0.0000 1.0000
vn -0.1951 -0.0000 0.9808
vn -0.3827 -0.0000 0.9239
vn -0.5556 -0.0000 0.8315
vn -0.7071 -0.0000 0.7071
vn -0.8315 -0.0000 0.5556
vn -0.9239 -0.0000 0.3827
vn -0.9808 -0.0000 0.1951
vn -1.0000 -0.0000 -0.0000
vn -0.9808 -0.0000 -0.1951
vn -0.9239 -0.0000 -0.3827
vn -0.8315 -0.0000 -0.5556
vn -0.7071 -0.0000 -0.7071
vn -0.5556 -0.0000 -0.8315
vn -0.3827 -0.0000 -0.9239
vn -0.1951 -0.0000 -0.9808
vt 1.000000 0.833333
vt 1.000000 1.000000
vt 0.968750 1.000000
vt 0.968750 0.833333
vt 0.937500 1.000000
vt 0.937500 0.833333
vt 0.906250 1.000000
vt 0.906250 0.833333
vt 0.875000 1.000000
vt 0.875000 0.833333
vt 0.843750 1.000000
vt 0.843750 0.833333
vt 0.812500 1.000000
vt 0.812500 0.833333
vt 0.781250 1.000000
vt 0.781250 0.833333
vt 0.750000 1.000000
vt 0.750000 0.833333
vt 0.718750 1.000000
vt 0.718750 0.833333
vt 0.687500 1.000000
vt 0.687500 0.833333
vt 0.656250 1.000000
vt 0.656250 0.833333
vt 0.625000 1.000000
vt 0.625000 0.833333
vt 0.593750 1.000000
vt 0.593750 0.833333
vt 0.562500 1.000000
vt 0.562500 0.833333
vt 0.531250 1.000000
vt 0.531250 0.833333
vt 0.500000 1.000000
vt 0.500000 0.833333
vt 0.468750 1.000000
vt 0.468750 0.833333
vt 0.437500 1.000000
vt 0.437500 0.833333
vt 0.406250 1.000000
vt 0.406250 0.833333
vt 0.375000 1.000000
vt 0.375000 0.833333
vt 0.343750 1.000000
vt 0.343750 0.833333
vt 0.312500 1.000000
vt 0.312500 0.833333
vt 0.281250 1.000000
vt 0.281250 0.833333
vt 0.250000 1.000000
vt 0.250000 0.833333
vt 0.218750 1.000000
vt 0.218750 0.833333
vt 0.187500 1.000000
vt 0.187500 0.833333
vt 0.156250 1.000000
vt 0.156250 0.833333
vt 0.125000 1.000000
vt 0.125000 0.833333
vt 0.093750 1.000000
vt 0.093750 0.833333
vt 0.062500 1.000000
vt 0.062500 0.833333
vt 0.296822 0.485388
vt 0.250000 0.490000
vt 0.203178 0.485388
vt 0.158156 0.471731
vt 0.116663 0.449553
vt 0.080294 0.419706
vt 0.050447 0.383337
vt 0.028269 0.341844
vt 0.014612 0.296822
vt 0.010000 0.250000
vt 0.014612 0.203178
vt 0.028269 0.158156
vt 0.050447 0.116663
vt 0.080294 0.080294
vt 0.116663 0.050447
vt 0.158156 0.028269
vt 0.203178 0.014612
vt 0.250000 0.010000
vt 0.296822 0.014612
vt 0.341844 0.028269
vt 0.383337 0.050447
vt 0.419706 0.080294
vt 0.449553 0.116663
vt 0.471731 0.158156
vt 0.485388 0.203178
vt 0.490000 0.250000
vt 0.485388 0.296822
vt 0.471731 0.341844
vt 0.449553 0.383337
vt 0.419706 0.419706
vt 0.383337 0.449553
vt 0.341844 0.471731
vt 0.031250 1.000000
vt 0.031250 0.833333
vt 0.000000 1.000000
vt 0.000000 0.833333
vt 0.750000 0.490000
vt 0.796822 0.485388
vt 0.841844 0.471731
vt 0.883337 0.449553
vt 0.919706 0.419706
vt 0.949553 0.383337
vt 0.971731 0.341844
vt 0.985388 0.296822
vt 0.990000 0.250000
vt 0.985388 0.203178
vt 0.971731 0.158156
vt 0.949553 0.116663
vt 0.919706 0.080294
vt 0.883337 0.050447
vt 0.841844 0.028269
vt 0.796822 0.014612
vt 0.750000 0.010000
vt 0.703178 0.014612
vt 0.658156 0.028269
vt 0.616663 0.050447
vt 0.580294 0.080294
vt 0.550447 0.116663
vt 0.528269 0.158156
vt 0.514612 0.203178
vt 0.510000 0.250000
vt 0.514612 0.296822
vt 0.528269 0.341844
vt 0.550447 0.383337
vt 0.580294 0.419706
vt 0.616663 0.449553
vt 0.658156 0.471731
vt 0.703178 0.485388
vt 0.031250 0.500000
vt 0.031250 0.666667
vt 0.000000 0.666667
vt 0.000000 0.500000
vt 0.062500 0.500000
vt 0.062500 0.666667
vt 0.093750 0.500000
vt 0.093750 0.666667
vt 0.125000 0.500000
vt 0.125000 0.666667
vt 0.156250 0.500000
vt 0.156250 0.666667
vt 0.187500 0.500000
vt 0.187500 0.666667
vt 0.218750 0.500000
vt 0.218750 0.666667
vt 0.250000 0.500000
vt 0.250000 0.666667
vt 0.281250 0.500000
vt 0.281250 0.666667
vt 0.312500 0.500000
vt 0.312500 0.666667
vt 0.343750 0.500000
vt 0.343750 0.666667
vt 0.375000 0.500000
vt 0.375000 0.666667
vt 0.406250 0.500000
vt 0.406250 0.666667
vt 0.437500 0.500000
vt 0.437500 0.666667
vt 0.468750 0.500000
vt 0.468750 0.666667
vt 0.500000 0.500000
vt 0.500000 0.666667
vt 0.531250 0.500000
vt 0.531250 0.666667
vt 0.562500 0.500000
vt 0.562500 0.666667
vt 0.593750 0.500000
vt 0.593750 0.666667
vt 0.625000 0.500000
vt 0.625000 0.666667
vt 0.656250 0.500000
vt 0.656250 0.666667
vt 0.687500 0.500000
vt 0.687500 0.666667
vt 0.718750 0.500000
vt 0.718750 0.666667
vt 0.750000 0.500000
vt 0.750000 0.666667
vt 0.781250 0.500000
vt 0.781250 0.666667
vt 0.812500 0.500000
vt 0.812500 0.666667
vt 0.843750 0.500000
vt 0.843750 0.666667
vt 0.875000 0.500000
vt 0.875000 0.666667
vt 0.906250 0.500000
vt 0.906250 0.666667
vt 0.937500 0.500000
vt 0.937500 0.666667
vt 0.968750 0.500000
vt 0.968750 0.666667
vt 1.000000 0.500000
vt 1.000000 0.666667
s 1
f 66/1/65 2/2/2 4/3/4 67/4/66
f 67/4/66 4/3/4 6/5/6 69/6/67
f 69/6/67 6/5/6 8/7/8 71/8/68
f 71/8/68 8/7/8 10/9/10 73/10/69
f 73/10/69 10/9/10 12/11/12 75/12/70
f 75/12/70 12/11/12 14/13/14 77/14/71
f 77/14/71 14/13/14 16/15/16 79/16/72
f 79/16/72 16/15/16 18/17/18 81/18/73
f 81/18/73 18/17/18 20/19/20 83/20/74
f 83/20/74 20/19/20 22/21/22 85/22/75
f 85/22/75 22/21/22 24/23/24 87/24/76
f 87/24/76 24/23/24 26/25/26 89/26/77
f 89/26/77 26/25/26 28/27/28 91/28/78
f 91/28/78 28/27/28 30/29/30 93/30/79
f 93/30/79 30/29/30 32/31/32 95/32/80
f 95/32/80 32/31/32 34/33/34 97/34/81
f 97/34/81 34/33/34 36/35/36 99/36/82
f 99/36/82 36/35/36 38/37/38 101/38/83
f 101/38/83 38/37/38 40/39/40 103/40/84
f 103/40/84 40/39/40 42/41/42 105/42/85
f 105/42/85 42/41/42 44/43/44 107/44/86
f 107/44/86 44/43/44 46/45/46 109/46/87
f 109/46/87 46/45/46 48/47/48 111/48/88
f 111/48/88 48/47/48 50/49/50 113/50/89
f 113/50/89 50/49/50 52/51/52 115/52/90
f 115/52/90 52/51/52 54/53/54 117/54/91
f 117/54/91 54/53/54 56/55/56 119/56/92
f 119/56/92 56/55/56 58/57/58 121/58/93
f 121/58/93 58/57/58 60/59/60 123/60/94
f 123/60/94 60/59/60 62/61/62 125/62/95
f 4/63/4 2/64/2 64/65/64 62/66/62 60/67/60 58/68/58 56/69/56 54/70/54 52/71/52 50/72/50 48/73/48 46/74/46 44/75/44 42/76/42 40/77/40 38/78/38 36/79/36 34/80/34 32/81/32 30/82/30 28/83/28 26/84/26 24/85/24 22/86/22 20/87/20 18/88/18 16/89/16 14/90/14 12/91/12 10/92/10 8/93/8 6/94/6
f 125/62/95 62/61/62 64/95/64 127/96/96
f 127/96/96 64/95/64 2/97/2 66/98/65
f 1/99/1 3/100/3 5/101/5 7/102/7 9/103/9 11/104/11 13/105/13 15/106/15 17/107/17 19/108/19 21/109/21 23/110/23 25/111/25 27/112/27 29/113/29 31/114/31 33/115/33 35/116/35 37/117/37 39/118/39 41/119/41 43/120/43 45/121/45 47/122/47 49/123/49 51/124/51 53/125/53 55/126/55 57/127/57 59/128/59 61/129/61 63/130/63
f 63/131/63 128/132/96 65/133/65 1/134/1
f 128/132/96 127/96/96 66/98/65 65/133/65
f 61/135/61 126/136/95 128/132/96 63/131/63
f 126/136/95 125/62/95 127/96/96 128/132/96
f 59/137/59 124/138/94 126/136/95 61/135/61
f 124/138/94 123/60/94 125/62/95 126/136/95
f 57/139/57 122/140/93 124/138/94 59/137/59
f 122/140/93 121/58/93 123/60/94 124/138/94
f 55/141/55 120/142/92 122/140/93 57/139/57
f 120/142/92 119/56/92 121/58/93 122/140/93
f 53/143/53 118/144/91 120/142/92 55/141/55
f 118/144/91 117/54/91 119/56/92 120/142/92
f 51/145/51 116/146/90 118/144/91 53/143/53
f 116/146/90 115/52/90 117/54/91 118/144/91
f 49/147/49 114/148/89 116/146/90 51/145/51
f 114/148/89 113/50/89 115/52/90 116/146/90
f 47/149/47 112/150/88 114/148/89 49/147/49
f 112/150/88 111/48/88 113/50/89 114/148/89
f 45/151/45 110/152/87 112/150/88 47/149/47
f 110/152/87 109/46/87 111/48/88 112/150/88
f 43/153/43 108/154/86 110/152/87 45/151/45
f 108/154/86 107/44/86 109/46/87 110/152/87
f 41/155/41 106/156/85 108/154/86 43/153/43
f 106/156/85 105/42/85 107/44/86 108/154/86
f 39/157/39 104/158/84 106/156/85 41/155/41
f 104/158/84 103/40/84 105/42/85 106/156/85
f 37/159/37 102/160/83 104/158/84 39/157/39
f 102/160/83 101/38/83 103/40/84 104/158/84
f 35/161/35 100/162/82 102/160/83 37/159/37
f 100/162/82 99/36/82 101/38/83 102/160/83
f 33/163/33 98/164/81 100/162/82 35/161/35
f 98/164/81 97/34/81 99/36/82 100/162/82
f 31/165/31 96/166/80 98/164/81 33/163/33
f 96/166/80 95/32/80 97/34/81 98/164/81
f 29/167/29 94/168/79 96/166/80 31/165/31
f 94/168/79 93/30/79 95/32/80 96/166/80
f 27/169/27 92/170/78 94/168/79 29/167/29
f 92/170/78 91/28/78 93/30/79 94/168/79
f 25/171/25 90/172/77 92/170/78 27/169/27
f 90/172/77 89/26/77 91/28/78 92/170/78
f 23/173/23 88/174/76 90/172/77 25/171/25
f 88/174/76 87/24/76 89/26/77 90/172/77
f 21/175/21 86/176/75 88/174/76 23/173/23
f 86/176/75 85/22/75 87/24/76 88/174/76
f 19/177/19 84/178/74 86/176/75 21/175/21
f 84/178/74 83/20/74 85/22/75 86/176/75
f 17/179/17 82/180/73 84/178/74 19/177/19
f 82/180/73 81/18/73 83/20/74 84/178/74
f 15/181/15 80/182/72 82/180/73 17/179/17
f 80/182/72 79/16/72 81/18/73 82/180/73
f 13/183/13 78/184/71 80/182/72 15/181/15
f 78/184/71 77/14/71 79/16/72 80/182/72
f 11/185/11 76/186/70 78/184/71 13/183/13
f 76/186/70 75/12/70 77/14/71 78/184/71
f 9/187/9 74/188/69 76/186/70 11/185/11
f 74/188/69 73/10/69 75/12/70 76/186/70
f 7/189/7 72/190/68 74/188/69 9/187/9
f 72/190/68 71/8/68 73/10/69 74/188/69
f 5/191/5 70/192/67 72/190/68 7/189/7
f 70/192/67 69/6/67 71/8/68 72/190/68
f 3/193/3 68/194/66 70/192/67 5/191/5
f 68/194/66 67/4/66 69/6/67 70/192/67
f 1/195/1 65/196/65 68/194/66 3/193/3
f 65/196/65 66/1/65 67/4/66 68/194/66
